<svg width="266" height="40" viewBox="0 0 266 40" fill="none" xmlns="http://www.w3.org/2000/svg">
<path d="M26.6253 17.38V13.3333H39.9379V0H0V13.3333H13.3126V26.6667H12.682H0V40H13.3126V32.3818H17.1168V26.6687L17.1045 9.53968H3.79187V3.79571H36.1522V9.53968H22.8395V9.88119V21.1922H26.6273V21.1881H28.5294V24.9982H32.3336V21.1881H36.1378V26.6646H26.6294V28.5697H20.9231V32.3798H26.6294V39.9979H39.942V26.9012V17.378H26.6294L26.6253 17.38ZM9.50843 36.1919H3.80214V30.4768H9.50843V36.1919ZM36.1337 36.1919H30.4274V30.4768H36.1337V36.1919Z" fill="#D5F334"/>
<path d="M20.921 32.3818H17.1168V40H20.921V32.3818Z" fill="#D5F334"/>
<path d="M7.60634 18.096H0V21.9061H7.60634V18.096Z" fill="#D5F334"/>
<path d="M64.2728 12.243C64.2728 11.6134 63.9585 11.2966 63.3279 11.2966H57.4717C56.8411 11.2966 56.5268 10.9818 56.5268 10.3502V7.32191C56.5268 6.69238 56.8411 6.37555 57.4717 6.37555H64.9157C65.5443 6.37555 65.8606 6.69032 65.8606 7.32191C65.8606 7.9535 66.1749 8.26827 66.8055 8.26827C67.4361 8.26827 67.7504 7.9535 67.7504 7.32191C67.7504 6.69032 68.0647 6.37555 68.6953 6.37555H76.1763C76.8049 6.37555 77.1212 6.69032 77.1212 7.32191V10.3502C77.1212 10.9818 76.8069 11.2966 76.1763 11.2966H70.3201C69.6895 11.2966 69.3752 11.6114 69.3752 12.243V32.6781C69.3752 33.3097 69.0609 33.6244 68.4303 33.6244H65.2198C64.5892 33.6244 64.2749 33.3097 64.2749 32.6781V12.243H64.2728Z" fill="white"/>
<path d="M98.0875 7.32397C98.0875 6.69444 98.4018 6.37762 99.0324 6.37762H102.243C102.872 6.37762 103.188 6.69238 103.188 7.32397V32.6781C103.188 33.3097 102.874 33.6244 102.243 33.6244H99.0324C98.4018 33.6244 98.0875 33.3097 98.0875 32.6781V22.6508C98.0875 22.0213 97.7733 21.7045 97.1427 21.7045H86.564C85.9334 21.7045 85.6192 22.0192 85.6192 22.6508V32.6781C85.6192 33.3097 85.3049 33.6244 84.6743 33.6244H81.4637C80.8331 33.6244 80.5188 33.3097 80.5188 32.6781V7.32397C80.5188 6.69444 80.8331 6.37762 81.4637 6.37762H84.6743C85.3028 6.37762 85.6192 6.69238 85.6192 7.32397V15.8391C85.6192 16.4707 85.9334 16.7855 86.564 16.7855H97.1427C97.7712 16.7855 98.0875 16.4707 98.0875 15.8391V7.32397Z" fill="white"/>
<path d="M107.723 7.32397C107.723 6.69444 108.037 6.37762 108.668 6.37762H127.56C128.188 6.37762 128.505 6.69238 128.505 7.32397C128.505 7.95556 128.819 8.27033 129.449 8.27033C130.08 8.27033 130.394 8.58509 130.394 9.21668V17.3533C130.394 17.9849 130.08 18.2996 129.449 18.2996C128.819 18.2996 128.505 18.6144 128.505 19.246C128.505 19.8776 128.819 20.1924 129.449 20.1924C130.08 20.1924 130.394 20.5071 130.394 21.1387V32.6801C130.394 33.3117 130.08 33.6265 129.449 33.6265H126.239C125.608 33.6265 125.294 33.3117 125.294 32.6801V22.6529C125.294 22.0234 124.98 21.7065 124.349 21.7065H113.77C113.14 21.7065 112.826 22.0213 112.826 22.6529V32.6801C112.826 33.3117 112.511 33.6265 111.881 33.6265H108.67C108.04 33.6265 107.725 33.3117 107.725 32.6801V7.32603L107.723 7.32397ZM112.824 15.8391C112.824 16.4707 113.138 16.7855 113.768 16.7855H124.347C124.976 16.7855 125.292 16.4707 125.292 15.8391V12.245C125.292 11.6155 124.978 11.2987 124.347 11.2987H113.768C113.138 11.2987 112.824 11.6134 112.824 12.245V15.8391Z" fill="white"/>
<path d="M139.648 27.7591C139.648 28.3907 139.962 28.7054 140.593 28.7054H153.25C153.879 28.7054 154.195 29.0202 154.195 29.6518V32.6801C154.195 33.3117 153.881 33.6265 153.25 33.6265H137.382C136.752 33.6265 136.438 33.3117 136.438 32.6801C136.438 32.0485 136.123 31.7338 135.493 31.7338C134.862 31.7338 134.548 31.419 134.548 30.7874V9.21873C134.548 8.5892 134.862 8.27237 135.493 8.27237C136.123 8.27237 136.438 7.95761 136.438 7.32602C136.438 6.69443 136.752 6.37967 137.382 6.37967H152.872C153.501 6.37967 153.817 6.69443 153.817 7.32602V10.3544C153.817 10.9859 153.503 11.3007 152.872 11.3007H140.593C139.962 11.3007 139.648 11.6155 139.648 12.2471V15.4626C139.648 16.0942 139.962 16.409 140.593 16.409H147.205C147.834 16.409 148.15 16.7237 148.15 17.3553V20.3816C148.15 21.0132 147.836 21.328 147.205 21.328H140.593C139.962 21.328 139.648 21.6427 139.648 22.2743V27.7611V27.7591Z" fill="white"/>
<path d="M180.642 32.6781C180.642 33.3097 180.328 33.6244 179.697 33.6244H176.486C175.856 33.6244 175.541 33.3097 175.541 32.6781V26.8127C175.541 26.1832 175.227 25.8664 174.597 25.8664H164.018C163.387 25.8664 163.073 26.1811 163.073 26.8127V32.6781C163.073 33.3097 162.759 33.6244 162.128 33.6244H158.918C158.287 33.6244 157.973 33.3097 157.973 32.6781V9.21668C157.973 8.58715 158.287 8.27033 158.918 8.27033C159.548 8.27033 159.863 7.95556 159.863 7.32397C159.863 6.69238 160.177 6.37762 160.807 6.37762H177.809C178.438 6.37762 178.754 6.69238 178.754 7.32397C178.754 7.95556 179.068 8.27033 179.699 8.27033C180.33 8.27033 180.644 8.58509 180.644 9.21668V32.6781H180.642ZM175.541 12.243C175.541 11.6134 175.227 11.2966 174.597 11.2966H164.018C163.387 11.2966 163.073 11.6114 163.073 12.243V20.001C163.073 20.6326 163.387 20.9474 164.018 20.9474H174.597C175.225 20.9474 175.541 20.6326 175.541 20.001V12.243Z" fill="white"/>
<path d="M185.175 7.32397C185.175 6.69444 185.489 6.37762 186.12 6.37762H205.768C206.396 6.37762 206.712 6.69238 206.712 7.32397C206.712 7.95556 207.027 8.27033 207.657 8.27033C208.288 8.27033 208.602 8.58509 208.602 9.21668V30.7854C208.602 31.417 208.288 31.7317 207.657 31.7317C207.027 31.7317 206.712 32.0465 206.712 32.6781C206.712 33.3097 206.398 33.6244 205.768 33.6244H186.12C185.489 33.6244 185.175 33.3097 185.175 32.6781V7.32397ZM190.276 27.7591C190.276 28.3907 190.59 28.7054 191.22 28.7054H202.555C203.183 28.7054 203.5 28.3907 203.5 27.7591V12.245C203.5 11.6155 203.186 11.2987 202.555 11.2987H191.22C190.59 11.2987 190.276 11.6134 190.276 12.245V27.7591Z" fill="white"/>
<path d="M217.64 32.6781C217.64 33.3097 217.326 33.6244 216.695 33.6244H213.485C212.854 33.6244 212.54 33.3097 212.54 32.6781V7.32397C212.54 6.69444 212.854 6.37762 213.485 6.37762H216.695C217.324 6.37762 217.64 6.69238 217.64 7.32397V32.6781Z" fill="white"/>
<path d="M222.174 9.21668C222.174 8.58715 222.488 8.27033 223.118 8.27033C223.749 8.27033 224.063 7.95556 224.063 7.32397C224.063 6.69238 224.378 6.37762 225.008 6.37762H238.988C239.617 6.37762 239.933 6.69238 239.933 7.32397V10.3523C239.933 10.9839 239.619 11.2987 238.988 11.2987H228.221C227.59 11.2987 227.276 11.6134 227.276 12.245V16.2177C227.276 16.8492 227.59 17.164 228.221 17.164H234.833C235.462 17.164 235.778 17.4788 235.778 18.1104V21.1367C235.778 21.7682 235.464 22.083 234.833 22.083H228.221C227.59 22.083 227.276 22.3978 227.276 23.0294V32.6781C227.276 33.3097 226.962 33.6244 226.331 33.6244H223.121C222.49 33.6244 222.176 33.3097 222.176 32.6781V9.21668H222.174Z" fill="white"/>
<path d="M246.166 22.8401C245.535 22.8401 245.221 22.5253 245.221 21.8937C245.221 21.2622 244.906 20.9474 244.276 20.9474C243.645 20.9474 243.331 20.6326 243.331 20.001V7.32397C243.331 6.69444 243.645 6.37762 244.276 6.37762H247.486C248.115 6.37762 248.431 6.69238 248.431 7.32397V16.9727C248.431 17.6043 248.746 17.919 249.376 17.919H259.955C260.583 17.919 260.9 17.6043 260.9 16.9727V7.32397C260.9 6.69444 261.214 6.37762 261.845 6.37762H265.055C265.684 6.37762 266 6.69238 266 7.32397V20.001C266 20.6326 265.686 20.9474 265.055 20.9474C264.424 20.9474 264.11 21.2622 264.11 21.8937C264.11 22.5253 263.796 22.8401 263.165 22.8401H258.141C257.51 22.8401 257.196 23.1549 257.196 23.7865V32.6801C257.196 33.3117 256.882 33.6265 256.251 33.6265H253.041C252.41 33.6265 252.096 33.3117 252.096 32.6801V23.7865C252.096 23.1569 251.781 22.8401 251.151 22.8401H246.164H246.166Z" fill="white"/>
</svg>
